<svg width="59" height="32" viewBox="0 0 59 32" fill="none" xmlns="http://www.w3.org/2000/svg">
<rect width="59" height="32" rx="8" fill="black" fill-opacity="0.65"/>
<path d="M17.1533 10.34L18.3267 12.6867C18.4867 13.0133 18.9133 13.3267 19.2733 13.3867L21.4 13.74C22.76 13.9667 23.08 14.9533 22.1 15.9267L20.4467 17.58C20.1667 17.86 20.0133 18.4 20.1 18.7867L20.5733 20.8333C20.9467 22.4533 20.0867 23.08 18.6533 22.2333L16.66 21.0533C16.3 20.84 15.7067 20.84 15.34 21.0533L13.3467 22.2333C11.92 23.08 11.0533 22.4467 11.4267 20.8333L11.9 18.7867C11.9867 18.4 11.8333 17.86 11.5533 17.58L9.9 15.9267C8.92667 14.9533 9.24 13.9667 10.6 13.74L12.7267 13.3867C13.08 13.3267 13.5067 13.0133 13.6667 12.6867L14.84 10.34C15.48 9.06668 16.52 9.06668 17.1533 10.34Z" stroke="#FFAD49" stroke-width="1.5" stroke-linecap="round" stroke-linejoin="round"/>
<path d="M31.104 15.984C30.5067 15.7493 30.048 15.408 29.728 14.96C29.408 14.512 29.248 13.968 29.248 13.328C29.248 12.752 29.392 12.2347 29.68 11.776C29.968 11.3067 30.3947 10.9387 30.96 10.672C31.536 10.3947 32.2293 10.256 33.04 10.256C33.8507 10.256 34.5387 10.3947 35.104 10.672C35.68 10.9387 36.112 11.3067 36.4 11.776C36.6987 12.2347 36.848 12.752 36.848 13.328C36.848 13.9467 36.6827 14.4907 36.352 14.96C36.0213 15.4187 35.568 15.76 34.992 15.984C35.6533 16.1867 36.176 16.544 36.56 17.056C36.9547 17.5573 37.152 18.1653 37.152 18.88C37.152 19.5733 36.9813 20.1813 36.64 20.704C36.2987 21.216 35.8133 21.616 35.184 21.904C34.5653 22.1813 33.8507 22.32 33.04 22.32C32.2293 22.32 31.5147 22.1813 30.896 21.904C30.288 21.616 29.8133 21.216 29.472 20.704C29.1307 20.1813 28.96 19.5733 28.96 18.88C28.96 18.1653 29.152 17.552 29.536 17.04C29.92 16.528 30.4427 16.176 31.104 15.984ZM35.44 13.504C35.44 12.8533 35.2267 12.352 34.8 12C34.3733 11.648 33.7867 11.472 33.04 11.472C32.304 11.472 31.7227 11.648 31.296 12C30.8693 12.352 30.656 12.8587 30.656 13.52C30.656 14.1173 30.8747 14.5973 31.312 14.96C31.76 15.3227 32.336 15.504 33.04 15.504C33.7547 15.504 34.3307 15.3227 34.768 14.96C35.216 14.5867 35.44 14.1013 35.44 13.504ZM33.04 16.624C32.2507 16.624 31.6053 16.8107 31.104 17.184C30.6027 17.5467 30.352 18.096 30.352 18.832C30.352 19.5147 30.592 20.064 31.072 20.48C31.5627 20.896 32.2187 21.104 33.04 21.104C33.8613 21.104 34.512 20.896 34.992 20.48C35.472 20.064 35.712 19.5147 35.712 18.832C35.712 18.1173 35.4667 17.5733 34.976 17.2C34.4853 16.816 33.84 16.624 33.04 16.624ZM39.7898 22.096C39.5124 22.096 39.2778 22 39.0858 21.808C38.8938 21.616 38.7978 21.3813 38.7978 21.104C38.7978 20.8267 38.8938 20.592 39.0858 20.4C39.2778 20.208 39.5124 20.112 39.7898 20.112C40.0564 20.112 40.2804 20.208 40.4618 20.4C40.6538 20.592 40.7498 20.8267 40.7498 21.104C40.7498 21.3813 40.6538 21.616 40.4618 21.808C40.2804 22 40.0564 22.096 39.7898 22.096ZM42.4131 13.344C42.4878 12.3627 42.8665 11.5947 43.5491 11.04C44.2318 10.4853 45.1171 10.208 46.2051 10.208C46.9305 10.208 47.5545 10.3413 48.0771 10.608C48.6105 10.864 49.0105 11.216 49.2771 11.664C49.5545 12.112 49.6931 12.6187 49.6931 13.184C49.6931 13.8453 49.5011 14.416 49.1171 14.896C48.7438 15.376 48.2531 15.6853 47.6451 15.824V15.904C48.3385 16.0747 48.8878 16.4107 49.2931 16.912C49.6985 17.4133 49.9011 18.0693 49.9011 18.88C49.9011 19.488 49.7625 20.0373 49.4851 20.528C49.2078 21.008 48.7918 21.3867 48.2371 21.664C47.6825 21.9413 47.0158 22.08 46.2371 22.08C45.1065 22.08 44.1785 21.7867 43.4531 21.2C42.7278 20.6027 42.3225 19.76 42.2371 18.672H43.6451C43.7198 19.312 43.9811 19.8347 44.4291 20.24C44.8771 20.6453 45.4745 20.848 46.2211 20.848C46.9678 20.848 47.5331 20.656 47.9171 20.272C48.3118 19.8773 48.5091 19.3707 48.5091 18.752C48.5091 17.952 48.2425 17.376 47.7091 17.024C47.1758 16.672 46.3705 16.496 45.2931 16.496H44.9251V15.28H45.3091C46.2905 15.2693 47.0318 15.1093 47.5331 14.8C48.0345 14.48 48.2851 13.9893 48.2851 13.328C48.2851 12.7627 48.0985 12.3093 47.7251 11.968C47.3625 11.6267 46.8398 11.456 46.1571 11.456C45.4958 11.456 44.9625 11.6267 44.5571 11.968C44.1518 12.3093 43.9118 12.768 43.8371 13.344H42.4131Z" fill="#FFAD49"/>
</svg>
